<svg id="Calque_1" data-name="Calque 1" xmlns="http://www.w3.org/2000/svg" viewBox="0 0 36 86"><defs><style>.cls-1{fill:#fff;}</style></defs><title>scroll</title><path class="cls-1" d="M32,41V59a18,18,0,0,0,36,0V41a18,18,0,0,0-36,0ZM50,27A14,14,0,0,1,64,41V59a14,14,0,0,1-28,0V41A14,14,0,0,1,50,27Z" transform="translate(-32 -7)"/><path class="cls-1" d="M50,44a2,2,0,0,0,2-2V36a2,2,0,0,0-4,0v6A2,2,0,0,0,50,44Z" transform="translate(-32 -7)"/><path class="cls-1" d="M48.6,92.4a1.93,1.93,0,0,0,2.8,0l5-5a2,2,0,0,0-2.8-2.8L50,88.2l-3.6-3.6a2,2,0,0,0-2.8,2.8Z" transform="translate(-32 -7)"/><path class="cls-1" d="M48.6,7.6l-5,5a1.93,1.93,0,0,0,0,2.8,1.93,1.93,0,0,0,2.8,0L50,11.8l3.6,3.6a1.93,1.93,0,0,0,2.8,0,1.93,1.93,0,0,0,0-2.8l-5-5A1.93,1.93,0,0,0,48.6,7.6Z" transform="translate(-32 -7)"/></svg>